HIERARCHY
ROOT joint_Root
{
	OFFSET 0.0 0.0 0.0
	CHANNELS 6 Xposition Yposition Zposition Zrotation Xrotation Yrotation 
	JOINT Hips
	{
		OFFSET -0.726466 93.3139 -2.00062
		CHANNELS 6 Xposition Yposition Zposition Zrotation Xrotation Yrotation 
		JOINT Spine
		{
			OFFSET 15.7357 0.0 0.0
			CHANNELS 6 Xposition Yposition Zposition Zrotation Xrotation Yrotation 
			JOINT Chest
			{
				OFFSET 8.98455 -0.406207 0.0
				CHANNELS 6 Xposition Yposition Zposition Zrotation Xrotation Yrotation 
				JOINT Neck
				{
					OFFSET 16.3773 0.0 0.0
					CHANNELS 6 Xposition Yposition Zposition Zrotation Xrotation Yrotation 
					JOINT Head
					{
						OFFSET 6.45672 0.0 0.0
						CHANNELS 6 Xposition Yposition Zposition Zrotation Xrotation Yrotation 
						End Site
						{
							OFFSET 0.0 0.0 0.0
						}
					}
				}
				JOINT Shoulder_L
				{
					OFFSET 12.9942 -0.242716 4.98039
					CHANNELS 6 Xposition Yposition Zposition Zrotation Xrotation Yrotation 
					JOINT UpperArm_L
					{
						OFFSET 5.34809 0.0 0.0
						CHANNELS 6 Xposition Yposition Zposition Zrotation Xrotation Yrotation 
						JOINT LowerArm_L
						{
							OFFSET 24.3286 1.87007e-05 0.0
							CHANNELS 6 Xposition Yposition Zposition Zrotation Xrotation Yrotation 
							JOINT Hand_L
							{
								OFFSET 22.2916 0.0 0.0
								CHANNELS 6 Xposition Yposition Zposition Zrotation Xrotation Yrotation 
								End Site
								{
									OFFSET 0.0 0.0 0.0
								}
							}
						}
					}
				}
				JOINT Shoulder_R
				{
					OFFSET 12.9945 -0.242716 -4.98039
					CHANNELS 6 Xposition Yposition Zposition Zrotation Xrotation Yrotation 
					JOINT UpperArm_R
					{
						OFFSET -5.34813 0.0 0.0
						CHANNELS 6 Xposition Yposition Zposition Zrotation Xrotation Yrotation 
						JOINT LowerArm_R
						{
							OFFSET -24.3289 0.000322201 0.0
							CHANNELS 6 Xposition Yposition Zposition Zrotation Xrotation Yrotation 
							JOINT Hand_R
							{
								OFFSET -22.2915 -0.000108084 0.0
								CHANNELS 6 Xposition Yposition Zposition Zrotation Xrotation Yrotation 
								End Site
								{
									OFFSET 0.0 0.0 0.0
								}
							}
						}
					}
				}
			}
		}
		JOINT UpperLeg_L
		{
			OFFSET -2.19248 -6.46944 0.0
			CHANNELS 6 Xposition Yposition Zposition Zrotation Xrotation Yrotation 
			JOINT LowerLeg_L
			{
				OFFSET 39.0811 0.0 -1.23785e-05
				CHANNELS 6 Xposition Yposition Zposition Zrotation Xrotation Yrotation 
				JOINT Foot_L
				{
					OFFSET 40.9854 0.0 -1.26872e-05
					CHANNELS 6 Xposition Yposition Zposition Zrotation Xrotation Yrotation 
					JOINT Toes_L
					{
						OFFSET 11.7543 0.0 0.0
						CHANNELS 6 Xposition Yposition Zposition Zrotation Xrotation Yrotation 
						End Site
						{
							OFFSET 0.0 0.0 0.0
						}
					}
				}
			}
		}
		JOINT UpperLeg_R
		{
			OFFSET -2.19251 6.46944 0.0
			CHANNELS 6 Xposition Yposition Zposition Zrotation Xrotation Yrotation 
			JOINT LowerLeg_R
			{
				OFFSET -39.0811 -0.00228153 -0.0401928
				CHANNELS 6 Xposition Yposition Zposition Zrotation Xrotation Yrotation 
				JOINT Foot_R
				{
					OFFSET -40.9854 0.0 0.0
					CHANNELS 6 Xposition Yposition Zposition Zrotation Xrotation Yrotation 
					JOINT Toes_R
					{
						OFFSET -11.7543 0.0 0.0
						CHANNELS 6 Xposition Yposition Zposition Zrotation Xrotation Yrotation 
						End Site
						{
							OFFSET 0.0 0.0 0.0
						}
					}
				}
			}
		}
	}
}
MOTION
Frames:	4
Frame Time:	0.0333333
0.000000 0.000000 0.000000 0.000000 0.000000 -0.000000 -185.427000 90.925500 200.220000 83.671600 86.512200 8.443530 15.735700 0.000005 -0.000001 100.078000 81.242400 -99.485700 8.984550 -0.406207 -0.000000 9.473190 3.056050 0.929906 16.377300 -0.000001 -0.000001 5.923050 -1.206470 -0.935428 6.456720 -0.000001 -0.000000 0.344720 -4.468010 3.308110 12.994200 -0.242716 4.980390 -88.626000 -2.972190 -65.174900 5.348090 -0.000007 -0.000001 -65.979300 36.187500 -0.747937 24.328600 0.000019 0.000005 6.299740 7.945120 -38.613200 22.291600 -0.000001 0.000005 1.243640 5.553840 -8.888620 12.994500 -0.242716 -4.980390 89.075000 2.676740 -70.929900 -5.348130 -0.000001 -0.000004 -42.130000 28.724700 -37.451200 -24.328900 0.000322 -0.000009 4.223020 4.452750 -43.572200 -22.291500 -0.000108 -0.000004 1.138960 5.545480 -8.494260 -2.192480 -6.469440 -0.000000 -176.524000 -14.406100 -22.952400 39.081100 -0.000007 -0.000012 0.033992 -0.040433 40.051700 40.985400 -0.000006 -0.000013 2.530360 -4.420120 -60.020000 11.754300 -0.000000 0.000003 -0.005359 -0.064905 -19.217900 -2.192510 6.469440 -0.000001 -178.211000 17.942700 172.593000 -39.081100 -0.002282 -0.040193 0.007176 -0.006832 29.549900 -40.985400 0.000008 0.000006 5.624560 -3.713400 -70.812900 -11.754300 -0.000006 -0.000006 -0.007900 -0.087211 -20.124300
0.000000 0.000000 0.000000 0.000000 0.000000 -0.000000 -182.889000 90.815800 200.230000 79.799000 85.174300 12.243800 15.735700 0.000005 -0.000001 103.590000 81.126100 -102.987000 8.984550 -0.406207 -0.000000 9.481600 4.155260 0.859867 16.377300 -0.000001 -0.000001 5.741640 -0.859893 -1.196340 6.456720 -0.000001 -0.000000 0.390094 -4.840680 3.010910 12.994200 -0.242716 4.980390 -88.614400 -2.881550 -64.305100 5.348090 -0.000007 -0.000001 -67.068500 35.051400 1.791270 24.328600 0.000019 0.000005 6.124160 7.901480 -37.971800 22.291600 -0.000001 0.000005 1.166030 5.551380 -8.771210 12.994500 -0.242716 -4.980390 89.279700 2.172600 -71.655300 -5.348130 -0.000001 -0.000004 -39.502000 27.182800 -41.118300 -24.328900 0.000322 -0.000009 4.036320 4.069040 -44.849200 -22.291500 -0.000108 -0.000004 1.204720 5.546380 -8.536000 -2.192480 -6.469440 -0.000000 -176.935000 -15.735000 -23.559000 39.081100 -0.000007 -0.000012 0.015627 -0.027078 29.989100 40.985400 -0.000006 -0.000013 2.175210 -4.340450 -59.845800 11.754300 -0.000000 0.000003 -0.004763 -0.059166 -18.983900 -2.192510 6.469440 -0.000001 -178.531000 17.492300 175.028000 -39.081100 -0.002282 -0.040193 -0.004608 0.014606 28.446700 -40.985400 0.000008 0.000006 4.900180 -2.732780 -72.014200 -11.754300 -0.000006 -0.000006 -0.007511 -0.083991 -19.992800
0.000000 0.000000 0.000000 0.000000 0.000000 -0.000000 -180.140000 90.428200 200.238000 74.591100 83.635500 17.451900 15.735700 0.000005 -0.000001 106.852000 80.964400 -106.131000 8.984550 -0.406207 -0.000000 9.525650 5.219700 1.006770 16.377300 -0.000001 -0.000001 5.441240 -0.437168 -1.363350 6.456720 -0.000001 -0.000000 0.561421 -4.955790 2.676480 12.994200 -0.242716 4.980390 -88.496200 -3.049480 -63.735100 5.348090 -0.000007 -0.000001 -68.495600 33.769600 4.294570 24.328600 0.000019 0.000005 5.856780 7.785330 -37.134300 22.291600 -0.000001 0.000005 1.266710 5.551810 -8.791630 12.994500 -0.242716 -4.980390 89.533800 1.468030 -72.384100 -5.348130 -0.000001 -0.000004 -37.969900 25.519400 -43.887500 -24.328900 0.000322 -0.000009 3.588060 3.490490 -45.854500 -22.291500 -0.000108 -0.000004 1.596280 5.544860 -8.465780 -2.192480 -6.469440 -0.000000 -176.448000 -16.777800 -23.684300 39.081100 -0.000007 -0.000012 -0.007813 0.021125 20.295600 40.985400 -0.000006 -0.000013 -0.231319 -3.876960 -59.147100 11.754300 -0.000000 0.000003 -0.004655 -0.058096 -18.940400 -2.192510 6.469440 -0.000001 -178.602000 16.913500 177.362000 -39.081100 -0.002282 -0.040193 -0.020537 0.044725 28.062700 -40.985400 0.000008 0.000006 4.189190 -1.821260 -73.703300 -11.754300 -0.000006 -0.000006 -0.007213 -0.081480 -19.890300
0.000000 0.000000 0.000000 0.000000 0.000000 -0.000000 -177.116000 89.836900 200.216000 71.234100 82.084300 20.898800 15.735700 0.000005 -0.000001 109.394000 80.796000 -108.582000 8.984550 -0.406207 -0.000000 9.594630 6.089490 1.111010 16.377300 -0.000001 -0.000001 5.114200 0.008628 -1.479830 6.456720 -0.000001 -0.000000 0.732465 -4.697820 2.534310 12.994200 -0.242716 4.980390 -88.268600 -3.454180 -63.357600 5.348090 -0.000007 -0.000001 -70.158500 32.308200 6.663900 24.328600 0.000019 0.000005 5.757770 7.916900 -36.206300 22.291600 -0.000001 0.000005 1.106480 5.549730 -8.692840 12.994500 -0.242716 -4.980390 89.752300 0.809401 -72.984200 -5.348130 -0.000001 -0.000004 -37.314300 24.044000 -46.010000 -24.328900 0.000322 -0.000009 3.106940 2.973130 -46.312500 -22.291500 -0.000108 -0.000004 1.873660 5.544830 -8.464100 -2.192480 -6.469440 -0.000000 -176.385000 -17.540400 -22.981500 39.081100 -0.000007 -0.000012 -0.001155 0.006086 10.736300 40.985400 -0.000006 -0.000013 1.645540 -4.600530 -59.854100 11.754300 -0.000000 0.000003 -0.004960 -0.061086 -19.062200 -2.192510 6.469440 -0.000001 -178.794000 16.195600 179.819000 -39.081100 -0.002282 -0.040193 -0.029102 0.060865 28.033500 -40.985400 0.000008 0.000006 3.466580 -1.036600 -75.737100 -11.754300 -0.000006 -0.000006 -0.006453 -0.074895 -19.621600
